<svg xmlns="http://www.w3.org/2000/svg" xmlns:xlink="http://www.w3.org/1999/xlink" width="285.11" height="277.691" viewBox="0 0 285.11 277.691">
  <defs>
    <linearGradient id="linear-gradient" x1="1" y1="0.533" x2="0" y2="0.558" gradientUnits="objectBoundingBox">
      <stop offset="0" stop-color="#ff8c33"/>
      <stop offset="1" stop-color="#d20073"/>
    </linearGradient>
  </defs>
  <path id="arrow1" d="M961.1,572.025l-1.8-.527-2.313-1.393-2.313-1.392-1.587-2.663-1.587-2.663-.447-2.381-.447-2.381.778-3.159.778-3.159,2.254-2.565,2.253-2.564,2.925-1.088L962.521,545l3.966.279,3.966.279,2.737,1.878,2.737,1.878,1.528,2.819,1.528,2.819-.014,3.577-.014,3.577-1.214,2.6-1.214,2.6-2.462,1.977-2.462,1.977-2.838.7-2.838.7-1.515-.055-1.515-.055-1.8-.527Zm42.6.016-1.872-.582L999.7,570.04l-2.126-1.419-1.383-1.976-1.384-1.976-.684-2.994-.684-2.994.416-2.123.416-2.123,1.189-2.318,1.19-2.318,1.982-1.624,1.982-1.624,2.384-.767,2.384-.766,3.873.273,3.874.273,2.737,1.878,2.737,1.878,1.528,2.819,1.528,2.819v7.537l-1.06,2.047-1.06,2.047-1.731,1.816-1.731,1.816-1.749.89-1.749.89-3.5.312-3.5.312Zm42.016-.277-2.536-.919-1.956-1.809-1.956-1.809-1.321-2.5-1.321-2.5.252-4.345.252-4.345,1.95-2.7,1.95-2.7,2.955-1.537,2.955-1.537,4.4.229,4.4.228,2.819,1.928,2.819,1.928,1.546,2.725,1.546,2.725.023,3.642.023,3.642-.985,2.239-.985,2.238-1.884,1.818-1.884,1.818-1.893.954-1.893.954-3.373.276-3.374.276-2.536-.919Zm43.4.086-2.477-.786-2.354-1.84-2.353-1.84-1.229-2.637-1.229-2.637-.014-3.577-.014-3.577,1.528-2.819,1.528-2.819,2.737-1.878,2.737-1.878,3.966-.279L1095.9,545l2.925,1.088,2.926,1.088,2.253,2.564,2.253,2.564.778,3.159.778,3.159-.447,2.381-.447,2.381-1.61,2.7-1.61,2.7-2.87,1.638-2.87,1.638-3.186.284-3.186.284ZM961.589,530.377l-2.618-.611-2.037-1.36-2.037-1.36-1.436-2.042-1.436-2.041-.639-2.169-.639-2.169.006-1.6.006-1.6.689-2.416.689-2.416,2.036-2.259,2.036-2.259,2.632-1.308,2.632-1.308,4.461.245,4.461.245,2.768,1.9,2.768,1.9,1.578,2.878,1.578,2.878-.235,4.29-.234,4.289-1.979,2.746-1.979,2.746-2.6,1.375-2.6,1.375-2.627.334-2.627.334-2.618-.611Zm42.421-.037-2.878-.639-3.118-3.037-3.118-3.037-.723-3.282-.722-3.282.411-2.1.411-2.1,1.154-2.238,1.155-2.238,1.541-1.364,1.541-1.364,2.1-1.034,2.1-1.034h8.009l2.1,1.034,2.1,1.034,1.541,1.364,1.541,1.364,1.249,2.373,1.25,2.373v7.777l-1.25,2.373-1.249,2.373-1.541,1.364-1.541,1.364-1.97.958-1.97.959-2.626.341-2.627.341Zm43.588.165-1.97-.481-1.97-1.006-1.97-1.006-1.4-1.5-1.4-1.5-1.062-2.047-1.062-2.047V513.13l1.25-2.373,1.249-2.373,1.541-1.364,1.542-1.364,2.1-1.034,2.1-1.034h8.01l2.1,1.034,2.1,1.034,1.541,1.364,1.541,1.364,1.155,2.238,1.154,2.238.412,2.1.411,2.1-.683,3.1-.684,3.1-2.238,2.546-2.238,2.546-2.156.976-2.156.976-2.626.334-2.627.334Zm42.68,0-1.97-.481-2.056-1.043-2.056-1.043-1.663-1.925-1.663-1.925-.787-2.323-.787-2.322.28-3.773.28-3.773,1.928-2.666,1.928-2.666,2.894-1.488,2.894-1.488h7.725l2.537,1.261,2.537,1.26,1.975,2.334,1.976,2.334.753,2.913.753,2.913-.445,2.606-.444,2.607-.847,1.612-.846,1.612-1.867,1.835-1.867,1.835-1.97.8-1.97.8-2.627.34-2.626.34Zm42.575-.021-2.075-.488-2.185-1.243-2.184-1.242-1.937-2.684-1.937-2.684-.281-3.784-.281-3.784,1.658-3.528,1.658-3.527,2.776-1.79,2.776-1.79,4.423-.243,4.423-.243,2.365,1.093,2.364,1.093,2.278,2.456,2.278,2.456.76,2.748.76,2.748-.4,2.833-.4,2.833-1.656,2.753-1.656,2.753-2.773,1.547-2.773,1.547-2.955.33-2.955.33Zm-131.218-42.669-1.97-1.011-1.541-1.361-1.541-1.361-1.154-2.239-1.155-2.238-.411-2.1-.411-2.1.723-3.282.723-3.282,3.1-3.016,3.1-3.016,3.369-.7,3.369-.7,2.157.4,2.157.4,2.3,1.125,2.3,1.125,1.4,1.5,1.4,1.5,1.062,2.047,1.062,2.047v7.8l-1.062,2.047-1.062,2.047-1.4,1.5-1.4,1.5-2.436,1.217-2.436,1.217-4.13-.026-4.13-.026-1.97-1.011Zm42.68,0-1.97-1.011-1.541-1.361-1.541-1.361-1.249-2.373-1.25-2.373v-7.789l1.062-2.047,1.062-2.047,1.4-1.5,1.4-1.5,2.3-1.125,2.3-1.125,2.157-.4,2.157-.4,3.37.7,3.369.7,3.1,3.016,3.1,3.016.723,3.282.723,3.282-.41,2.1-.411,2.1-.968,1.919-.968,1.919-1.4,1.5-1.4,1.5-2.436,1.217-2.436,1.217-4.13-.026-4.13-.025-1.97-1.012Zm42.291-.425-2.894-1.488-1.928-2.666-1.928-2.666-.28-3.773-.28-3.773.787-2.322.787-2.323,1.667-1.931,1.668-1.93,2.38-1.159,2.38-1.159,2.157-.4,2.157-.4,3.336.7,3.337.7,2.593,2.281,2.593,2.281L1106,469l.865,1.647.46,2.694.459,2.695-1.012,3.391-1.012,3.391-2.161,2-2.161,2-2.1,1.031-2.1,1.031H1089.5Zm44.15.8-1.546-.6-1.986-1.377-1.985-1.377-1.632-3.472-1.632-3.472.277-3.723.276-3.723,1.754-2.581,1.753-2.581,3-1.714,3-1.714h8.4l2.971,1.7,2.971,1.7,1.823,3.021,1.823,3.021-.023,4.157-.022,4.157-1.066,1.932-1.066,1.932-1.73,1.686-1.731,1.686-2.205,1.019-2.205,1.019-3.84-.04-3.841-.04-1.546-.6Zm42.234-.178-1.992-.879-2.055-2-2.055-2-1.126-2.872-1.126-2.872.309-3.142.31-3.142,1.762-2.929,1.762-2.929,2.971-1.7,2.971-1.7h8.509l3.1,1.842,3.1,1.842,1.806,3.469,1.806,3.469v5.915l-1.722,3.366-1.722,3.366-2.65,1.709-2.65,1.709-4.656.175-4.656.175Zm-129-42.136-2.955-1.525-2.134-3.074-2.134-3.074v-8.233l1.06-2.047,1.06-2.047,1.731-1.816,1.731-1.816,1.651-.84,1.65-.84,2.993-.437,2.992-.437,2.907.763,2.907.762,3.037,2.97,3.037,2.97.689,3.2.69,3.2-.506,2.651-.506,2.651-1.282,2.137-1.281,2.137-2.787,1.908-2.787,1.908-4.4.228-4.4.228Zm42.619-.062-2.894-1.488-1.928-2.666L1079.855,439l-.287-3.863-.287-3.863,1.117-2.849,1.117-2.849,2.633-2.2,2.633-2.195,3.243-.758,3.243-.758,2.445.435,2.444.435,2.774,1.568,2.773,1.568,1.61,2.7,1.61,2.7.447,2.381.447,2.381-.768,3.119-.768,3.119-2.046,2.417-2.046,2.418-2.673,1.182-2.673,1.183-3.672.014-3.672.014-2.894-1.488Zm42.307-.417-3.389-1.893-1.778-3.54-1.778-3.54.285-3.837.285-3.838,1.957-2.715,1.957-2.715,2.926-1.589,2.925-1.589,3.991-.01,3.991-.01,3.232,1.922,3.231,1.922,1.806,3.469,1.806,3.469v4.567l-.688,2.416-.689,2.416-2.036,2.259-2.036,2.259-2.5,1.241-2.5,1.241-3.8-.006-3.8-.006-3.389-1.893Zm44.1.844-1.969-1.01-1.889-1.683-1.888-1.683-1.216-2.558-1.216-2.558-.021-2.923-.021-2.923,1.806-3.472,1.806-3.472,2.233-1.441,2.233-1.441,2.645-.694,2.645-.694,2.673.394,2.674.394,2.6,1.425,2.6,1.425,1.867,2.588,1.868,2.588.376,3.551.376,3.551-.808,2.385-.809,2.385-2,2.221-2,2.221-2.5,1.242-2.5,1.241-3.8-.026-3.8-.026-1.969-1.01Zm42.634-.115-2.673-1.217-2.1-2.481-2.1-2.481-.708-2.552-.708-2.552.4-2.833.4-2.833,1.657-2.753,1.656-2.753,3.1-1.773,3.1-1.773,3.94.027,3.939.027,2.627,1.348,2.627,1.348,1.446,1.51,1.446,1.51,1.016,2.369,1.016,2.369v6.583l-1.731,3.1-1.731,3.1-2.621,1.769-2.621,1.769-4.348.2-4.348.2-2.673-1.217Zm-213.006-41.107-1.622-.63-2.16-1.6-2.16-1.6-1.419-2.681-1.419-2.681-.012-3.9-.01-3.9,1.782-2.962L997.4,382.1l2.976-1.7,2.976-1.7,2.759-.3,2.759-.3,2.821.74,2.821.74,2.522,2.219,2.522,2.219,1.122,2.3,1.122,2.3-.25,4.308-.25,4.308-1.745,2.569-1.745,2.569-3.456,1.678-3.456,1.677-3.318-.04-3.318-.04-1.622-.63Zm41.553-.81-3.405-1.579-1.848-2.72-1.848-2.72v-10.42l1.615-2.3,1.615-2.3,2.58-1.629,2.579-1.629,2.86-.418,2.86-.418,2.187.4,2.187.4,2.976,1.838,2.977,1.838,1.512,3.044,1.513,3.044-.036,3.733-.036,3.733-1.746,2.9-1.747,2.9-2.667,1.719-2.667,1.719-4.027.214-4.027.214Zm42.609-.105-3.476-1.713-1.935-3.287-1.935-3.287-.006-3.7-.006-3.7,1.275-2.433,1.274-2.433,2.319-1.983,2.319-1.983,2.48-.671,2.48-.671,2.344-.006,2.345-.006,3.562,1.759,3.562,1.759,1.973,3.148,1.973,3.148-.02,3.888-.021,3.888-1.631,2.85-1.631,2.85-2.8,1.918-2.8,1.918-4.09.233-4.09.233-3.475-1.713Zm43.529.414-2.627-1.184-1.771-1.84-1.771-1.839-1.02-2.378-1.02-2.378.021-3.058.021-3.059,1.214-2.6,1.214-2.6,2.547-2.046,2.547-2.046,2.3-.623,2.3-.623h4.6l3.283,1.5,3.283,1.5,1.113,1.221,1.113,1.221,1.335,2.866,1.334,2.867.021,2.238.021,2.238-.639,2.238-.64,2.238-2.1,2.481-2.1,2.481-2.673,1.182-2.673,1.182h-6.566l-2.627-1.184Zm42.674.02-2.632-1.165-2.1-2.331-2.1-2.33-.755-2.727-.755-2.727.374-3.082.373-3.082,1.4-2.208,1.4-2.208,2.084-1.548,2.083-1.548,2.959-.771,2.959-.771,3.1.453,3.1.453,2.739,2.039,2.739,2.039,1.527,2.819,1.528,2.819-.021,3.257-.02,3.257-1.216,2.558-1.216,2.558-1.889,1.725-1.888,1.725-2.442.993-2.441.993-3.139-.014-3.14-.014-2.632-1.165ZM958.58,362.4l-3.565-1.759-1.479-2.175-1.48-2.175-.712-2.576-.712-2.576.4-2.6.405-2.6,1.463-2.532,1.463-2.532,2.657-1.819,2.657-1.819,3.645-.366,3.645-.366,2.449.787,2.449.787,2.281,1.95,2.281,1.95,1.275,2.433,1.275,2.433-.015,3.383-.014,3.383-1.216,2.558-1.216,2.558-1.889,1.725-1.888,1.725-2.441.993-2.441.993h-5.716L958.58,362.4Zm42.646-.028-3.512-1.787-1.939-3.055-1.939-3.055v-8.022l1.767-2.937,1.767-2.937,1.8-1.232,1.8-1.232,2.539-.8,2.539-.8,3.2.3,3.2.3,3.072,1.853,3.071,1.853,1.578,2.878,1.578,2.878-.222,4.543-.222,4.543-1.872,2.631-1.872,2.631-3.338,1.62-3.338,1.62h-6.158Zm42.962.167-3.338-1.62-1.88-2.642-1.88-2.642V345.2l1.762-2.593,1.762-2.593,3.456-1.678,3.456-1.677h6.073l3.562,1.759,3.562,1.759,1.891,3.018,1.891,3.018v8.393l-1.9,2.99-1.9,2.99-3.512,1.787-3.512,1.787h-6.158Zm43.79.6-2.3-.97-1.866-1.724-1.866-1.723-1.253-2.373-1.253-2.373v-7.137l1.313-2.507,1.313-2.507,1.806-1.632,1.806-1.633,2.8-1.041,2.8-1.041,3.734.375,3.734.375,2.657,1.819,2.657,1.819,1.463,2.532,1.463,2.532.405,2.6.405,2.6-.712,2.576-.712,2.576-1.48,2.175-1.479,2.175-3.564,1.759-3.564,1.759-3-.025-3-.025-2.3-.97Zm43.1.083-2.536-.881-1.979-1.809-1.979-1.809-1.216-2.558-1.217-2.558v-6.4l1.217-2.558,1.216-2.558,1.888-1.725,1.889-1.725,2.441-.993,2.442-.993h6.194l2.834,1.337,2.835,1.337,1.876,2.217,1.876,2.217.75,2.437.749,2.437v3.541l-.807,2.632-.808,2.632-2.639,2.571-2.64,2.571-2.7.787-2.7.787-2.222-.028-2.222-.028-2.537-.881ZM961.1,321.953l-1.8-.527-2.313-1.392-2.313-1.392-1.587-2.662-1.587-2.662-.447-2.381-.447-2.381.768-3.119.768-3.119,2.046-2.417,2.046-2.417,2.673-1.182,2.673-1.182,3.611-.008,3.611-.008,3.306,1.847,3.306,1.847,1.783,3.19,1.782,3.19-.014,3.431-.014,3.431-1.214,2.6-1.214,2.6-2.42,1.943-2.42,1.943-2.5.73-2.5.73-1.894-.055-1.893-.055-1.8-.527Zm42.731.014-1.745-.513-2.046-1.177-2.045-1.177-1.714-2.41-1.715-2.41-.531-2.72-.531-2.72.361-2.318.361-2.318,1.412-2.452,1.412-2.452,2.813-1.926,2.814-1.926,4.4-.228,4.4-.228,2.955,1.537,2.954,1.537,1.95,2.7,1.95,2.7.252,4.345.252,4.345-1.343,2.563-1.342,2.563-2.319,1.983-2.319,1.983-2.48.671-2.48.671-1.97-.051-1.97-.051-1.745-.513Zm41.889-.275-2.536-.919-1.956-1.809-1.956-1.809-1.321-2.5-1.321-2.5.252-4.345.252-4.345,1.95-2.7,1.95-2.7,2.955-1.537,2.955-1.537,4.4.228,4.4.228,2.819,1.928,2.819,1.928,1.547,2.725,1.547,2.725.023,3.642.023,3.642-.985,2.238-.985,2.238-1.884,1.818-1.884,1.818-1.894.954-1.893.954-3.374.276-3.373.276-2.537-.919Zm43.247.257-1.97-.6-2.547-2.052-2.547-2.052-1.214-2.6-1.214-2.6-.014-3.577-.015-3.577,1.52-2.819,1.52-2.819,3.54-2.079,3.54-2.079h6.995l2.432.99,2.432.99,1.55,1.409,1.55,1.408,1.384,2.558,1.384,2.558.029,3.837.027,3.837-1.821,3.021-1.821,3.021-2.906,1.659-2.906,1.659-3.478.256-3.478.256-1.97-.6Z" transform="translate(-950.607 -294.991)" fill="url(#linear-gradient)"/>
</svg>
