<svg xmlns="http://www.w3.org/2000/svg" viewBox="0 0 2810.094 386.577">
  <defs>
    <style>
      .cls-1 {
        fill: #fff;
      }
    </style>
  </defs>
  <title>dsckiit2019_white_horizon</title>
  <g id="Layer_2" data-name="Layer 2">
    <g id="Layer_1-2" data-name="Layer 1">
      <g id="white_horizontal">
        <g>
          <path class="cls-1" d="M513.239,271.869h14.4v.484L495.451,309.5l34.365,48.521v.483H516.143L487.95,318.091l-13.309,15.367v25.047H463.508V271.869h11.133v44.649h.483Z"/>
          <path class="cls-1" d="M557.647,297.28q12.34,0,19.48,6.595t7.139,18.09v36.541H573.618v-8.228h-.483q-6.9,10.165-18.392,10.164-9.8,0-16.4-5.808a18.551,18.551,0,0,1-6.594-14.521,17.63,17.63,0,0,1,6.957-14.642q6.958-5.443,18.574-5.444,9.92,0,16.334,3.63v-2.541a12.673,12.673,0,0,0-4.6-9.861,15.776,15.776,0,0,0-10.769-4.054,17.061,17.061,0,0,0-14.763,7.865l-9.8-6.171Q541.794,297.28,557.647,297.28Zm-14.4,43.076a8.888,8.888,0,0,0,3.691,7.26,13.572,13.572,0,0,0,8.651,2.9,17.741,17.741,0,0,0,12.523-5.2,16.3,16.3,0,0,0,5.5-12.222q-5.2-4.11-14.52-4.113a18.854,18.854,0,0,0-11.313,3.268Q543.248,335.516,543.246,340.356Z"/>
          <path class="cls-1" d="M607.5,271.869v86.636H596.366V271.869Z"/>
          <path class="cls-1" d="M634.963,278.767a7.849,7.849,0,1,1-2.3-5.566A7.587,7.587,0,0,1,634.963,278.767Zm-2.3,20.449v59.289H621.533V299.216Z"/>
          <path class="cls-1" d="M646.7,299.216h10.647v8.228h.484a19.787,19.787,0,0,1,7.8-7.26,22.359,22.359,0,0,1,10.95-2.9q10.89,0,16.759,6.231t5.868,17.727v37.268H688.081V321.964q-.363-14.521-14.642-14.521a13.916,13.916,0,0,0-11.132,5.384,19.508,19.508,0,0,0-4.477,12.887v32.791H646.7Z"/>
          <path class="cls-1" d="M737.45,386.577a33.138,33.138,0,0,1-9.317-1.271,30.135,30.135,0,0,1-7.926-3.569,25.607,25.607,0,0,1-6.11-5.445,22.972,22.972,0,0,1-3.872-7.018l10.527-4.355a16.674,16.674,0,0,0,6.292,8.349,17.642,17.642,0,0,0,10.406,3.146q9.075,0,14.157-5.445t5.082-15v-5.687H756.2a21.924,21.924,0,0,1-8.53,7.441A25.511,25.511,0,0,1,736,360.442q-11.616,0-19.965-9.075a32.817,32.817,0,0,1-8.229-22.506q0-13.187,8.229-22.385,8.348-9.193,19.965-9.2A25.511,25.511,0,0,1,747.674,300a21.924,21.924,0,0,1,8.53,7.441h.484v-8.228h10.647v56.748q0,14.276-8.106,22.386Q751,386.576,737.45,386.577Zm.363-36.3a17.046,17.046,0,0,0,13.431-5.929q5.445-5.927,5.445-15.488,0-9.316-5.445-15.367a17.129,17.129,0,0,0-13.431-6.05,17.36,17.36,0,0,0-13.432,6.05q-5.445,6.053-5.445,15.367,0,9.438,5.445,15.367A17.354,17.354,0,0,0,737.813,350.278Z"/>
          <path class="cls-1" d="M802.306,297.28q12.341,0,19.48,6.595t7.14,18.09v36.541H818.278v-8.228h-.484q-6.9,10.165-18.392,10.164-9.8,0-16.4-5.808a18.549,18.549,0,0,1-6.595-14.521,17.628,17.628,0,0,1,6.958-14.642q6.957-5.443,18.573-5.444,9.92,0,16.335,3.63v-2.541a12.673,12.673,0,0,0-4.6-9.861,15.778,15.778,0,0,0-10.77-4.054,17.059,17.059,0,0,0-14.762,7.865l-9.8-6.171Q786.453,297.28,802.306,297.28Zm-14.4,43.076a8.889,8.889,0,0,0,3.69,7.26,13.574,13.574,0,0,0,8.651,2.9,17.739,17.739,0,0,0,12.523-5.2,16.3,16.3,0,0,0,5.506-12.222q-5.2-4.11-14.52-4.113a18.854,18.854,0,0,0-11.313,3.268Q787.907,335.516,787.907,340.356Z"/>
          <path class="cls-1" d="M880.227,358.505H869.1V271.869h11.132Z"/>
          <path class="cls-1" d="M895.231,299.216h10.647v8.228h.484a19.787,19.787,0,0,1,7.8-7.26,22.359,22.359,0,0,1,10.95-2.9q10.89,0,16.759,6.231t5.868,17.727v37.268H936.613V321.964q-.363-14.521-14.642-14.521a13.916,13.916,0,0,0-11.132,5.384,19.508,19.508,0,0,0-4.477,12.887v32.791H895.231Z"/>
          <path class="cls-1" d="M1005.1,342.05q0,7.745-6.776,13.067t-17.061,5.324a27.083,27.083,0,0,1-15.73-4.659,25.663,25.663,0,0,1-9.68-12.281l9.922-4.234a18.4,18.4,0,0,0,6.353,8.288,15.433,15.433,0,0,0,9.136,2.965,16.1,16.1,0,0,0,8.893-2.3q3.568-2.3,3.57-5.444,0-5.685-8.712-8.349l-10.164-2.541q-17.306-4.356-17.3-16.7a15.42,15.42,0,0,1,6.595-13.008q6.593-4.9,16.88-4.9a27.439,27.439,0,0,1,14.217,3.751,20.391,20.391,0,0,1,8.894,10.043l-9.922,4.114a12.5,12.5,0,0,0-5.5-5.868,17.283,17.283,0,0,0-8.531-2.118,14.3,14.3,0,0,0-7.8,2.179q-3.45,2.177-3.449,5.324,0,5.08,9.56,7.26l8.954,2.3Q1005.1,328.619,1005.1,342.05Z"/>
          <path class="cls-1" d="M1037.163,359.474A16.919,16.919,0,0,1,1025.124,355q-4.783-4.477-4.9-12.464V309.38h-10.405V299.216h10.405v-18.15h11.133v18.15h14.52V309.38h-14.52V338.9q0,5.93,2.3,8.047a7.472,7.472,0,0,0,5.2,2.117,11.123,11.123,0,0,0,2.6-.3,13.348,13.348,0,0,0,2.359-.786l3.509,9.922A29.916,29.916,0,0,1,1037.163,359.474Z"/>
          <path class="cls-1" d="M1071.04,278.767a7.849,7.849,0,1,1-2.3-5.566A7.587,7.587,0,0,1,1071.04,278.767Zm-2.3,20.449v59.289H1057.61V299.216Z"/>
          <path class="cls-1" d="M1105.646,359.474A16.919,16.919,0,0,1,1093.607,355q-4.783-4.477-4.9-12.464V309.38H1078.3V299.216h10.405v-18.15h11.133v18.15h14.52V309.38h-14.52V338.9q0,5.93,2.3,8.047a7.472,7.472,0,0,0,5.2,2.117,11.123,11.123,0,0,0,2.6-.3,13.348,13.348,0,0,0,2.359-.786l3.509,9.922A29.916,29.916,0,0,1,1105.646,359.474Z"/>
          <path class="cls-1" d="M1176.55,358.505H1165.9v-8.228h-.484a19.8,19.8,0,0,1-7.8,7.261,22.374,22.374,0,0,1-10.95,2.9q-10.89,0-16.759-6.231t-5.868-17.727V299.216h11.132v36.541q.363,14.521,14.642,14.521a13.916,13.916,0,0,0,11.132-5.384,19.511,19.511,0,0,0,4.477-12.887V299.216h11.132Z"/>
          <path class="cls-1" d="M1213.7,359.474A16.919,16.919,0,0,1,1201.657,355q-4.783-4.477-4.9-12.464V309.38H1186.35V299.216h10.405v-18.15h11.133v18.15h14.52V309.38h-14.52V338.9q0,5.93,2.3,8.047a7.472,7.472,0,0,0,5.2,2.117,11.123,11.123,0,0,0,2.6-.3,13.348,13.348,0,0,0,2.359-.786l3.509,9.922A29.916,29.916,0,0,1,1213.7,359.474Z"/>
          <path class="cls-1" d="M1258.586,360.442q-13.069,0-21.538-8.954t-8.471-22.627q0-13.55,8.229-22.566t21.054-9.015q13.187,0,20.993,8.53t7.8,23.9l-.121,1.209h-46.585q.242,8.713,5.809,14.037a18.575,18.575,0,0,0,13.31,5.323q10.646,0,16.7-10.647l9.922,4.84a29.563,29.563,0,0,1-11.071,11.736A30.623,30.623,0,0,1,1258.586,360.442Zm-17.787-38.72h34a14.768,14.768,0,0,0-5.021-10.225q-4.538-4.052-12.161-4.054a16.14,16.14,0,0,0-10.829,3.872A18.491,18.491,0,0,0,1240.8,321.722Z"/>
          <path class="cls-1" d="M1319.083,328.861q0-13.673,8.591-22.627,8.713-8.953,21.9-8.954t21.78,8.954q8.711,8.956,8.712,22.627,0,13.793-8.712,22.627-8.593,8.956-21.78,8.954t-21.9-8.954Q1319.081,342.535,1319.083,328.861Zm11.132,0q0,9.56,5.566,15.488a19.011,19.011,0,0,0,27.588,0q5.565-5.927,5.566-15.488,0-9.438-5.566-15.367a18.75,18.75,0,0,0-27.588,0Q1330.215,319.423,1330.215,328.861Z"/>
          <path class="cls-1" d="M1415.279,270.9a21.085,21.085,0,0,1,9.922,2.057l-3.025,9.8a14.419,14.419,0,0,0-6.533-1.451,8.69,8.69,0,0,0-6.716,2.844,10.764,10.764,0,0,0-2.6,7.563v7.5h15.488V309.38h-15.488v49.125h-11.132V309.38h-11.132V299.216h11.132v-8.592q0-8.83,5.626-14.277T1415.279,270.9Z"/>
          <path class="cls-1" d="M1471.178,358.505h-11.132V271.869h11.132Z"/>
          <path class="cls-1" d="M1486.182,299.216h10.647v8.228h.484a19.787,19.787,0,0,1,7.8-7.26,22.359,22.359,0,0,1,10.95-2.9q10.89,0,16.759,6.231t5.868,17.727v37.268h-11.132V321.964q-.363-14.521-14.642-14.521a13.916,13.916,0,0,0-11.132,5.384,19.508,19.508,0,0,0-4.477,12.887v32.791h-11.132Z"/>
          <path class="cls-1" d="M1576.084,360.442q-11.616,0-19.965-9.2a34.562,34.562,0,0,1,0-44.77q8.348-9.193,19.965-9.2A25.578,25.578,0,0,1,1588,300.063a20.879,20.879,0,0,1,8.289,7.381h.484l-.484-8.228V271.869h11.132v86.636h-10.647v-8.228h-.484a20.85,20.85,0,0,1-8.289,7.381A25.578,25.578,0,0,1,1576.084,360.442Zm1.815-10.164a17.046,17.046,0,0,0,13.431-5.929q5.445-5.927,5.445-15.488,0-9.316-5.445-15.367a17.129,17.129,0,0,0-13.431-6.05,17.36,17.36,0,0,0-13.432,6.05q-5.445,6.053-5.445,15.367,0,9.438,5.445,15.367A17.354,17.354,0,0,0,1577.9,350.278Z"/>
          <path class="cls-1" d="M1672.519,358.505h-10.647v-8.228h-.484a19.8,19.8,0,0,1-7.8,7.261,22.374,22.374,0,0,1-10.95,2.9q-10.89,0-16.759-6.231t-5.868-17.727V299.216h11.132v36.541q.363,14.521,14.642,14.521a13.916,13.916,0,0,0,11.132-5.384,19.511,19.511,0,0,0,4.477-12.887V299.216h11.132Z"/>
          <path class="cls-1" d="M1730.358,342.05q0,7.745-6.776,13.067t-17.061,5.324a27.083,27.083,0,0,1-15.73-4.659,25.663,25.663,0,0,1-9.68-12.281l9.922-4.234a18.4,18.4,0,0,0,6.353,8.288,15.433,15.433,0,0,0,9.136,2.965,16.1,16.1,0,0,0,8.893-2.3q3.568-2.3,3.57-5.444,0-5.685-8.712-8.349l-10.164-2.541q-17.306-4.356-17.3-16.7a15.42,15.42,0,0,1,6.595-13.008q6.593-4.9,16.88-4.9a27.439,27.439,0,0,1,14.217,3.751,20.391,20.391,0,0,1,8.894,10.043l-9.922,4.114a12.5,12.5,0,0,0-5.5-5.868,17.283,17.283,0,0,0-8.531-2.118,14.3,14.3,0,0,0-7.8,2.179q-3.45,2.177-3.449,5.324,0,5.08,9.56,7.26l8.954,2.3Q1730.356,328.619,1730.358,342.05Z"/>
          <path class="cls-1" d="M1762.422,359.474A16.919,16.919,0,0,1,1750.383,355q-4.783-4.477-4.9-12.464V309.38h-10.405V299.216h10.405v-18.15h11.133v18.15h14.52V309.38h-14.52V338.9q0,5.93,2.3,8.047a7.472,7.472,0,0,0,5.2,2.117,11.123,11.123,0,0,0,2.6-.3,13.348,13.348,0,0,0,2.359-.786l3.509,9.922A29.916,29.916,0,0,1,1762.422,359.474Z"/>
          <path class="cls-1" d="M1792.429,358.505H1781.3V299.216h10.647v9.68h.484a16.071,16.071,0,0,1,6.957-8.047,19.322,19.322,0,0,1,10.346-3.327,20.854,20.854,0,0,1,8.229,1.452l-3.389,10.769a18.477,18.477,0,0,0-6.534-.847,14.4,14.4,0,0,0-10.95,5.082,16.994,16.994,0,0,0-4.658,11.857Z"/>
          <path class="cls-1" d="M1839.134,278.767a7.849,7.849,0,1,1-2.3-5.566A7.587,7.587,0,0,1,1839.134,278.767Zm-2.3,20.449v59.289H1825.7V299.216Z"/>
          <path class="cls-1" d="M1872.772,297.28q12.341,0,19.48,6.595t7.14,18.09v36.541h-10.648v-8.228h-.484q-6.9,10.165-18.392,10.164-9.8,0-16.4-5.808a18.549,18.549,0,0,1-6.595-14.521,17.628,17.628,0,0,1,6.958-14.642q6.957-5.443,18.573-5.444,9.92,0,16.335,3.63v-2.541a12.673,12.673,0,0,0-4.6-9.861,15.778,15.778,0,0,0-10.77-4.054,17.059,17.059,0,0,0-14.762,7.865l-9.8-6.171Q1856.919,297.28,1872.772,297.28Zm-14.4,43.076a8.889,8.889,0,0,0,3.69,7.26,13.574,13.574,0,0,0,8.651,2.9,17.739,17.739,0,0,0,12.523-5.2,16.3,16.3,0,0,0,5.506-12.222q-5.2-4.11-14.52-4.113a18.854,18.854,0,0,0-11.313,3.268Q1858.372,335.516,1858.372,340.356Z"/>
          <path class="cls-1" d="M1922.623,271.869v86.636h-11.132V271.869Z"/>
          <path class="cls-1" d="M1988.446,282.518v75.987h-11.133V282.518h-24.2V271.869h59.531v10.648Z"/>
          <path class="cls-1" d="M2038.783,360.442q-13.069,0-21.538-8.954t-8.471-22.627q0-13.55,8.229-22.566t21.054-9.015q13.187,0,20.993,8.53t7.8,23.9l-.121,1.209h-46.585q.242,8.713,5.809,14.037a18.575,18.575,0,0,0,13.31,5.323q10.646,0,16.7-10.647l9.922,4.84a29.563,29.563,0,0,1-11.071,11.736A30.623,30.623,0,0,1,2038.783,360.442ZM2021,321.722h34a14.768,14.768,0,0,0-5.021-10.225q-4.538-4.052-12.161-4.054a16.14,16.14,0,0,0-10.829,3.872A18.491,18.491,0,0,0,2021,321.722Z"/>
          <path class="cls-1" d="M2104.242,360.442q-13.189,0-21.9-8.954-8.593-9.193-8.591-22.627,0-13.673,8.591-22.627,8.713-8.953,21.9-8.954a27.144,27.144,0,0,1,26.015,17.062l-10.163,4.234q-4.72-11.13-16.577-11.132a17.208,17.208,0,0,0-13.189,6.171,24.066,24.066,0,0,0,0,30.492,17.208,17.208,0,0,0,13.189,6.171q12.22,0,17.182-11.132l9.922,4.234a26.558,26.558,0,0,1-10.225,12.523A28.9,28.9,0,0,1,2104.242,360.442Z"/>
          <path class="cls-1" d="M2139.814,271.869h11.132v27.347l-.484,8.228h.484a19.787,19.787,0,0,1,7.8-7.26,22.359,22.359,0,0,1,10.95-2.9q10.89,0,16.759,6.231t5.868,17.727v37.268H2181.2v-35.09q0-15.971-14.157-15.972a14.312,14.312,0,0,0-11.435,5.626,19.965,19.965,0,0,0-4.658,13.129v32.307h-11.132Z"/>
          <path class="cls-1" d="M2204.911,299.216h10.647v8.228h.484a19.787,19.787,0,0,1,7.8-7.26,22.359,22.359,0,0,1,10.95-2.9q10.89,0,16.759,6.231t5.868,17.727v37.268h-11.132V321.964q-.363-14.521-14.642-14.521a13.916,13.916,0,0,0-11.132,5.384,19.508,19.508,0,0,0-4.477,12.887v32.791h-11.132Z"/>
          <path class="cls-1" d="M2266.619,328.861q0-13.673,8.591-22.627,8.713-8.953,21.9-8.954t21.78,8.954q8.711,8.956,8.712,22.627,0,13.793-8.712,22.627-8.593,8.956-21.78,8.954t-21.9-8.954Q2266.618,342.535,2266.619,328.861Zm11.132,0q0,9.56,5.566,15.488a19.011,19.011,0,0,0,27.588,0q5.565-5.927,5.566-15.488,0-9.438-5.566-15.367a18.75,18.75,0,0,0-27.588,0Q2277.751,319.423,2277.751,328.861Z"/>
          <path class="cls-1" d="M2347.812,271.869v86.636H2336.68V271.869Z"/>
          <path class="cls-1" d="M2356.887,328.861q0-13.673,8.591-22.627,8.713-8.953,21.9-8.954t21.78,8.954q8.711,8.956,8.712,22.627,0,13.793-8.712,22.627-8.593,8.956-21.78,8.954t-21.9-8.954Q2356.885,342.535,2356.887,328.861Zm11.132,0q0,9.56,5.566,15.488a19.011,19.011,0,0,0,27.588,0q5.565-5.927,5.566-15.488,0-9.438-5.566-15.367a18.75,18.75,0,0,0-27.588,0Q2368.019,319.423,2368.019,328.861Z"/>
          <path class="cls-1" d="M2453.809,386.577a33.138,33.138,0,0,1-9.317-1.271,30.135,30.135,0,0,1-7.926-3.569,25.607,25.607,0,0,1-6.11-5.445,22.972,22.972,0,0,1-3.872-7.018l10.527-4.355a16.674,16.674,0,0,0,6.292,8.349,17.642,17.642,0,0,0,10.406,3.146q9.075,0,14.157-5.445t5.082-15v-5.687h-.484a21.924,21.924,0,0,1-8.53,7.441,25.511,25.511,0,0,1-11.677,2.723q-11.616,0-19.965-9.075a32.817,32.817,0,0,1-8.229-22.506q0-13.187,8.229-22.385,8.348-9.193,19.965-9.2A25.511,25.511,0,0,1,2464.034,300a21.924,21.924,0,0,1,8.53,7.441h.484v-8.228H2483.7v56.748q0,14.276-8.106,22.386Q2467.358,386.576,2453.809,386.577Zm.363-36.3a17.046,17.046,0,0,0,13.431-5.929q5.445-5.927,5.445-15.488,0-9.316-5.445-15.367a17.129,17.129,0,0,0-13.431-6.05,17.36,17.36,0,0,0-13.432,6.05q-5.445,6.053-5.445,15.367,0,9.438,5.445,15.367A17.354,17.354,0,0,0,2454.172,350.278Z"/>
          <path class="cls-1" d="M2549.76,299.216l-37.147,85.426h-11.5l13.794-29.887-24.441-55.539h12.1l17.666,42.592h.242l17.182-42.592Z"/>
        </g>
        <g>
          <path class="cls-1" d="M470.42,175.505V20.134h47.523q35.585,0,57.18,21.482t21.591,56.2q0,34.939-21.591,56.312t-57.18,21.374ZM490.384,39.23V156.41h27.56q27.123,0,42.748-15.516T576.317,97.82q0-27.343-15.625-42.966T517.944,39.23Z"/>
          <path class="cls-1" d="M662.9,178.978q-23.436,0-38.626-16.059t-15.189-40.578q0-24.3,14.756-40.471T661.6,65.7q23.65,0,37.649,15.3t14,42.857l-.218,2.17H629.48q.432,15.624,10.416,25.172a33.308,33.308,0,0,0,23.87,9.548q19.093,0,29.946-19.1l17.794,8.68a53.007,53.007,0,0,1-19.855,21.049A54.922,54.922,0,0,1,662.9,178.978ZM631,109.538h60.977a26.484,26.484,0,0,0-9-18.338q-8.139-7.267-21.809-7.27a28.94,28.94,0,0,0-19.422,6.945Q633.6,97.823,631,109.538Z"/>
          <path class="cls-1" d="M782.465,175.505H762.5L719.535,69.175h21.7l31.248,82.461h.434L804.6,69.175h21.267Z"/>
          <path class="cls-1" d="M884.886,178.978q-23.436,0-38.626-16.059t-15.189-40.578q0-24.3,14.756-40.471T883.584,65.7q23.65,0,37.649,15.3t14,42.857l-.218,2.17H851.468q.432,15.624,10.416,25.172a33.308,33.308,0,0,0,23.87,9.548q19.093,0,29.946-19.1l17.794,8.68a53.007,53.007,0,0,1-19.855,21.049A54.922,54.922,0,0,1,884.886,178.978Zm-31.9-69.439h60.977a26.484,26.484,0,0,0-9-18.338q-8.139-7.267-21.809-7.27a28.94,28.94,0,0,0-19.422,6.945Q855.592,97.823,852.988,109.538Z"/>
          <path class="cls-1" d="M974.941,20.134V175.505H954.977V20.134Z"/>
          <path class="cls-1" d="M993.6,122.341q0-24.52,15.407-40.58,15.624-16.055,39.276-16.057t39.061,16.057q15.624,16.062,15.624,40.58,0,24.738-15.624,40.578-15.41,16.062-39.061,16.059t-39.276-16.059Q993.6,146.865,993.6,122.341Zm19.964,0q0,17.145,9.982,27.775a34.093,34.093,0,0,0,49.476,0q9.979-10.629,9.982-27.775,0-16.928-9.982-27.56a33.625,33.625,0,0,0-49.476,0Q1013.566,105.416,1013.568,122.341Z"/>
          <path class="cls-1" d="M1176.97,178.978a45.861,45.861,0,0,1-21.375-4.991,37.363,37.363,0,0,1-14.864-13.237h-.868l.868,14.756v46.873h-19.964V69.175h19.1V83.931h.868A37.419,37.419,0,0,1,1155.6,70.695a45.86,45.86,0,0,1,21.375-4.99q21.045,0,35.588,16.491,14.972,16.712,14.973,40.146,0,23.654-14.973,40.145Q1198.016,178.98,1176.97,178.978Zm-3.255-18.229A31.126,31.126,0,0,0,1197.8,149.9q9.765-10.629,9.765-27.559,0-16.708-9.765-27.56a32.4,32.4,0,0,0-48.392,0q-9.551,10.853-9.548,27.56,0,16.925,9.548,27.775A31.643,31.643,0,0,0,1173.715,160.749Z"/>
          <path class="cls-1" d="M1295.016,178.978q-23.436,0-38.626-16.059T1241.2,122.341q0-24.3,14.756-40.471T1293.714,65.7q23.65,0,37.649,15.3t14,42.857l-.218,2.17H1261.6q.432,15.624,10.416,25.172a33.308,33.308,0,0,0,23.87,9.548q19.093,0,29.946-19.1l17.794,8.68a53.007,53.007,0,0,1-19.855,21.049A54.922,54.922,0,0,1,1295.016,178.978Zm-31.9-69.439h60.977a26.484,26.484,0,0,0-9-18.338q-8.139-7.267-21.809-7.27a28.94,28.94,0,0,0-19.422,6.945Q1265.722,97.823,1263.118,109.538Z"/>
          <path class="cls-1" d="M1385.071,175.505h-19.964V69.175h19.1v17.36h.868q3.037-8.462,12.478-14.431t18.554-5.967a37.412,37.412,0,0,1,14.756,2.6l-6.076,19.313q-3.693-1.515-11.718-1.519-11.287,0-19.639,9.114a30.477,30.477,0,0,0-8.354,21.266Z"/>
          <path class="cls-1" d="M1587.527,134.059q0,20.4-14.973,32.767-15.192,12.155-36.891,12.152a54.523,54.523,0,0,1-34.068-11.284q-14.76-11.281-20.4-30.813l19.1-7.812a49.331,49.331,0,0,0,5.425,12.586,40.707,40.707,0,0,0,8.138,9.656,36.771,36.771,0,0,0,10.308,6.293,31.549,31.549,0,0,0,11.936,2.279q13.67,0,22.351-7.053t8.68-18.771a22.44,22.44,0,0,0-7.161-16.709q-6.728-6.724-25.172-13.021-18.665-6.724-23.219-9.113-24.738-12.583-24.738-37.107,0-17.139,13.672-29.295,13.884-12.149,34.068-12.152,17.791,0,30.814,9.114,13.02,8.9,17.359,22.351l-18.662,7.813a27.615,27.615,0,0,0-10.307-14.431q-7.707-5.747-18.771-5.751-11.719,0-19.747,6.511a18.96,18.96,0,0,0-8.029,15.841A18.354,18.354,0,0,0,1513.53,72q6.942,5.858,30.163,13.887,23.65,8.032,33.743,19.639T1587.527,134.059Z"/>
          <path class="cls-1" d="M1646.333,177.242q-13.02,0-21.592-8.029t-8.788-22.351V87.4h-18.662V69.175h18.662V36.626h19.964V69.175h26.04V87.4h-26.04v52.948q0,10.635,4.123,14.431a13.4,13.4,0,0,0,9.331,3.8,20.041,20.041,0,0,0,4.665-.542,23.953,23.953,0,0,0,4.231-1.411l6.293,17.795A53.676,53.676,0,0,1,1646.333,177.242Z"/>
          <path class="cls-1" d="M1775.88,175.505h-19.1V160.749h-.868q-4.557,7.813-14,13.021a40.127,40.127,0,0,1-19.639,5.208q-19.531,0-30.055-11.176T1681.7,136.011V69.175h19.964V134.71q.65,26.039,26.257,26.039,11.931,0,19.964-9.656a34.986,34.986,0,0,0,8.029-23.11V69.175h19.964Z"/>
          <path class="cls-1" d="M1845.1,178.978q-20.832,0-35.8-16.492-14.76-16.708-14.756-40.145T1809.3,82.2q14.974-16.488,35.8-16.491a45.872,45.872,0,0,1,21.375,4.99,37.439,37.439,0,0,1,14.864,13.236h.868l-.868-14.756V20.134h19.964V175.505h-19.1V160.749h-.868a37.383,37.383,0,0,1-14.864,13.237A45.872,45.872,0,0,1,1845.1,178.978Zm3.255-18.229q14.755,0,24.087-10.633,9.766-10.629,9.766-27.775,0-16.708-9.766-27.56a30.724,30.724,0,0,0-24.087-10.851,31.14,31.14,0,0,0-24.087,10.851q-9.765,10.853-9.765,27.56,0,16.925,9.765,27.559A31.126,31.126,0,0,0,1848.359,160.749Z"/>
          <path class="cls-1" d="M1973.784,178.978q-23.436,0-38.626-16.059t-15.189-40.578q0-24.3,14.756-40.471T1972.483,65.7q23.65,0,37.649,15.3t14,42.857l-.218,2.17h-83.545q.432,15.624,10.416,25.172a33.308,33.308,0,0,0,23.87,9.548q19.093,0,29.946-19.1l17.794,8.68a53.007,53.007,0,0,1-19.855,21.049A54.922,54.922,0,0,1,1973.784,178.978Zm-31.9-69.439h60.977a26.484,26.484,0,0,0-9-18.338q-8.139-7.267-21.809-7.27a28.94,28.94,0,0,0-19.422,6.945Q1944.49,97.823,1941.886,109.538Z"/>
          <path class="cls-1" d="M2043.875,69.175h19.1V83.931h.868q4.557-7.811,14-13.02a40.115,40.115,0,0,1,19.639-5.207q19.531,0,30.055,11.175t10.524,31.79v66.836h-19.964V109.972q-.652-26.041-26.257-26.041-11.937,0-19.965,9.657a34.98,34.98,0,0,0-8.028,23.11v58.807h-19.964Z"/>
          <path class="cls-1" d="M2199.68,177.242q-13.02,0-21.592-8.029t-8.788-22.351V87.4h-18.662V69.175H2169.3V36.626h19.964V69.175h26.04V87.4h-26.04v52.948q0,10.635,4.123,14.431a13.4,13.4,0,0,0,9.331,3.8,20.041,20.041,0,0,0,4.665-.542,23.953,23.953,0,0,0,4.231-1.411l6.293,17.795A53.676,53.676,0,0,1,2199.68,177.242Z"/>
          <path class="cls-1" d="M2357.436,178.978q-34.5,0-57.722-23.219-23-23.218-23-57.939t23-57.723q23-23.435,57.722-23.436,35.155,0,57.071,25.389l-14.322,13.889q-16.712-20.181-42.749-20.182-25.827,0-43.183,17.36-17.145,17.146-17.144,44.7t17.144,44.7q17.358,17.363,43.183,17.36,27.123,0,47.089-22.785l14.539,14.1a75.361,75.361,0,0,1-27.125,20.507A82.7,82.7,0,0,1,2357.436,178.978Z"/>
          <path class="cls-1" d="M2458.34,20.134V175.505h-19.964V20.134Z"/>
          <path class="cls-1" d="M2577.472,175.505h-19.1V160.749h-.868q-4.557,7.813-14,13.021a40.127,40.127,0,0,1-19.639,5.208q-19.531,0-30.055-11.176t-10.524-31.791V69.175h19.964V134.71q.65,26.039,26.257,26.039,11.931,0,19.964-9.656a34.986,34.986,0,0,0,8.029-23.11V69.175h19.964Z"/>
          <path class="cls-1" d="M2659.5,178.978a45.861,45.861,0,0,1-21.375-4.991,37.363,37.363,0,0,1-14.864-13.237h-.868v14.756h-19.1V20.134h19.964V69.175l-.868,14.756h.868a37.419,37.419,0,0,1,14.864-13.236A45.86,45.86,0,0,1,2659.5,65.7q21.045,0,35.588,16.491,14.972,16.712,14.973,40.146,0,23.654-14.973,40.145Q2680.543,178.98,2659.5,178.978Zm-3.256-18.229a31.123,31.123,0,0,0,24.087-10.85q9.766-10.629,9.766-27.559,0-16.708-9.766-27.56a32.4,32.4,0,0,0-48.391,0q-9.551,10.853-9.548,27.56,0,16.925,9.548,27.775A31.641,31.641,0,0,0,2656.241,160.749Z"/>
          <path class="cls-1" d="M2810.094,145.993q0,13.89-12.152,23.436t-30.6,9.549q-16.062,0-28.21-8.354a46.034,46.034,0,0,1-17.36-22.026L2739.569,141a33.008,33.008,0,0,0,11.393,14.863,27.674,27.674,0,0,0,16.384,5.317q9.546,0,15.949-4.123t6.4-9.765q0-10.2-15.624-14.974l-18.228-4.558q-31.034-7.811-31.031-29.945,0-14.536,11.826-23.328T2766.91,65.7a49.227,49.227,0,0,1,25.5,6.727,36.57,36.57,0,0,1,15.949,18.011l-17.794,7.378A22.424,22.424,0,0,0,2780.69,87.3a30.986,30.986,0,0,0-15.3-3.8,25.663,25.663,0,0,0-14,3.906q-6.185,3.905-6.185,9.548,0,9.114,17.144,13.021l16.058,4.123Q2810.092,121.906,2810.094,145.993Z"/>
        </g>
        <g>
          <path class="cls-1" d="M163.881,136.979,49.052,70.684a32.7,32.7,0,1,0-32.7,56.634l114.829,66.3a32.7,32.7,0,1,0,32.7-56.634Z"/>
          <path class="cls-1" d="M392.872,70.684,278.044,4.387a32.7,32.7,0,1,0-32.7,56.634l114.828,66.3a32.7,32.7,0,1,0,32.7-56.634Z"/>
          <path class="cls-1" d="M355.628,135.194l-53.593-30.943-56.688,32.728a32.7,32.7,0,1,0,32.7,56.634l92.3-53.291A41.884,41.884,0,0,1,355.628,135.194Z"/>
          <path class="cls-1" d="M53.6,62.808,107.193,93.75l56.688-32.729a32.7,32.7,0,1,0-32.7-56.634l-92.3,53.292A41.842,41.842,0,0,1,53.6,62.808Z"/>
        </g>
      </g>
    </g>
  </g>
</svg>
