<svg xmlns="http://www.w3.org/2000/svg" viewBox="0 0 1896.53 1440"><defs><style>.cls-1{fill:#4cb756;}.cls-2{fill:#47b65a;}</style></defs><title>kiitlogoA</title><g id="Layer_2" data-name="Layer 2"><g id="Layer_1-2" data-name="Layer 1"><path class="cls-1" d="M846.62,186V504.4h164.94V186ZM971.28,469.88H892.65V218.64h78.63Z"/><path class="cls-1" d="M1034.57,185.07V503.44h164.94V185.07Zm124.66,283.85H1080.6V217.68h78.63Z"/><circle class="cls-1" cx="930.53" cy="83.91" r="83.91"/><circle class="cls-1" cx="1112.24" cy="83.91" r="83.91"/><path class="cls-1" d="M1220.6,0V155.35h95.9v349h147.67v-349l80.55-1.92V0ZM1512,127.06l-80.91,1.32V459.8l-83.09-1V127.42h-89V28.88l253,1Z"/><path class="cls-1" d="M856.21,0H675.93L576.2,167.81V0H421.81V504.4H576.2V351.93l79.59,151.51,182.2,1L719.08,252.2ZM545.51,474.67H456.33V36.44h89.18Zm240.7-4.79H679.76L576.2,252.2,700.86,36.44H804.42L676.89,252.2Z"/><path class="cls-1" d="M467.52,504.4h51.14S551.27,911.63,932,911.63s450.38-321.57,450.7-408.19l47.63,1S1441.16,937.84,932,960.21C530.17,935,467.2,582.07,467.52,504.4Z"/><path class="cls-1" d="M353.73,474.67h44.11s1.92,514,540.84,542.76c518.78-4.8,562.89-498.65,561-542.76h49.87s12.46,571.85-608.93,594.54C353.38,1028,353.73,474.67,353.73,474.67Z"/><path class="cls-2" d="M0,476H258.85S245,844,580.83,1047.31s671.74,58.08,790.43-49.24,227.28-242.44,245-522.12h280.31v66.29l-243.69,30.31-11.37,73.23,219.71,133.84-45.46,117.43-243.69-72-45.46,70.71,149,207.08-82.07,97.22-189.4-169.2-88.39,59.35,64.4,252.53-103.54,55.56-113.64-229.8-135.11,25.25-17,246.22H882.61l-16.42-243.7-120-26.51-114.9,219.7-114.91-49.24L592.19,1118l-101-69.45-179.3,156.57-87.12-93.43,142.68-189.4-60.61-87.13L93.44,904.63,41.67,774.26l193.19-95.65L217.18,572.55,0,543.5Z"/></g></g></svg>