<svg xmlns="http://www.w3.org/2000/svg" xmlns:xlink="http://www.w3.org/1999/xlink" width="240" height="34" viewBox="0 0 240 34">
  <defs>
    <clipPath id="clip-MSP_Logo_Full">
      <rect width="240" height="34"/>
    </clipPath>
  </defs>
  <g id="MSP_Logo_Full" data-name="MSP Logo Full" clip-path="url(#clip-MSP_Logo_Full)">
    <rect id="Rectangle_13" data-name="Rectangle 13" width="7.068" height="7.068" transform="translate(9 3)" fill="#ea3818"/>
    <rect id="Rectangle_14" data-name="Rectangle 14" width="7.068" height="7.068" transform="translate(16.805 3)" fill="#7aae2d"/>
    <rect id="Rectangle_15" data-name="Rectangle 15" width="7.068" height="7.068" transform="translate(9 10.807)" fill="#0a90d3"/>
    <rect id="Rectangle_16" data-name="Rectangle 16" width="7.068" height="7.068" transform="translate(16.805 10.807)" fill="#ffa700"/>
    <path id="Path_462" data-name="Path 462" d="M38.884,39.243q-.208.463-.548,1.4H38.28a9.534,9.534,0,0,0-.516-1.364l-3.491-7.934H32.511V42.719H33.8V35.094q0-1.538-.063-2.22h.032a6.422,6.422,0,0,0,.34,1.166l3.889,8.68h.652l3.879-8.744a7.641,7.641,0,0,0,.342-1.1H42.9q-.111,1.3-.111,2.205v7.641H44.12V31.342H42.446Z" transform="translate(-4.41 -26.284)"/>
    <rect id="Rectangle_17" data-name="Rectangle 17" width="1.302" height="8.126" transform="translate(41.914 8.311)"/>
    <path id="Path_463" data-name="Path 463" d="M43.292,30.977a.835.835,0,0,0-.6.242.858.858,0,0,0,0,1.21.874.874,0,0,0,1.208-.007.818.818,0,0,0,.248-.6.8.8,0,0,0-.248-.6A.848.848,0,0,0,43.292,30.977Z" transform="translate(-0.713 -26.419)"/>
    <path id="Path_464" data-name="Path 464" d="M45.708,34.8a4.545,4.545,0,0,0-1.147,3.229,4.1,4.1,0,0,0,1.048,2.905,3.652,3.652,0,0,0,2.816,1.158,4.207,4.207,0,0,0,2.23-.571V40.28a3.277,3.277,0,0,1-2,.7,2.584,2.584,0,0,1-2.012-.825,3.216,3.216,0,0,1-.749-2.245,3.362,3.362,0,0,1,.816-2.366,2.61,2.61,0,0,1,2.023-.865,3.307,3.307,0,0,1,1.938.635V33.98a4.127,4.127,0,0,0-1.881-.412A4.009,4.009,0,0,0,45.708,34.8Z" transform="translate(0.076 -25.455)"/>
    <path id="Path_465" data-name="Path 465" d="M52.126,34.053a2.829,2.829,0,0,0-.881,1.372h-.032V33.751h-1.3v8.125h1.3V37.734a3.571,3.571,0,0,1,.611-2.213,1.74,1.74,0,0,1,2.325-.453V33.719a2.085,2.085,0,0,0-.778-.111A1.941,1.941,0,0,0,52.126,34.053Z" transform="translate(2.068 -25.44)"/>
    <path id="Path_466" data-name="Path 466" d="M57.408,33.567a4.037,4.037,0,0,0-2.952,1.08,4.36,4.36,0,0,0-1.191,3.277,4.232,4.232,0,0,0,1.047,2.992,3.74,3.74,0,0,0,2.9,1.175,3.847,3.847,0,0,0,2.953-1.175A4.388,4.388,0,0,0,61.262,37.8a4.448,4.448,0,0,0-1.02-3.1A3.626,3.626,0,0,0,57.408,33.567Zm1.864,6.579a2.372,2.372,0,0,1-1.96.833,2.518,2.518,0,0,1-1.975-.821,3.288,3.288,0,0,1-.74-2.281,3.446,3.446,0,0,1,.771-2.4,2.509,2.509,0,0,1,1.943-.795,2.4,2.4,0,0,1,1.913.785,3.555,3.555,0,0,1,.705,2.382A3.557,3.557,0,0,1,59.271,40.146Z" transform="translate(3.316 -25.455)"/>
    <path id="Path_467" data-name="Path 467" d="M62.668,37.33a4.626,4.626,0,0,1-1.221-.675,1.086,1.086,0,0,1-.325-.84A1.006,1.006,0,0,1,61.51,35a1.6,1.6,0,0,1,1.039-.317,3.066,3.066,0,0,1,1.842.579V33.948a3.866,3.866,0,0,0-1.737-.381,3.106,3.106,0,0,0-2.064.671,2.109,2.109,0,0,0-.8,1.686,2.083,2.083,0,0,0,.516,1.467,4.247,4.247,0,0,0,1.452.922,5.458,5.458,0,0,1,1.334.745,1.015,1.015,0,0,1,.34.785q0,1.136-1.548,1.135a3.253,3.253,0,0,1-2.109-.778v1.4a3.96,3.96,0,0,0,2.014.493,3.279,3.279,0,0,0,2.23-.714,2.118,2.118,0,0,0,.745-1.659,2,2,0,0,0-.594-1.492A4.76,4.76,0,0,0,62.668,37.33Z" transform="translate(5.738 -25.455)"/>
    <path id="Path_468" data-name="Path 468" d="M68.17,33.567a4.038,4.038,0,0,0-2.95,1.08,4.365,4.365,0,0,0-1.191,3.277,4.238,4.238,0,0,0,1.047,2.992,3.741,3.741,0,0,0,2.905,1.175,3.841,3.841,0,0,0,2.95-1.175,4.383,4.383,0,0,0,1.1-3.119,4.448,4.448,0,0,0-1.02-3.1A3.632,3.632,0,0,0,68.17,33.567Zm1.866,6.579a2.377,2.377,0,0,1-1.961.833,2.522,2.522,0,0,1-1.975-.821,3.288,3.288,0,0,1-.74-2.281,3.446,3.446,0,0,1,.771-2.4,2.511,2.511,0,0,1,1.943-.795,2.4,2.4,0,0,1,1.913.785,3.547,3.547,0,0,1,.705,2.382A3.565,3.565,0,0,1,70.037,40.146Z" transform="translate(7.324 -25.455)"/>
    <path id="Path_469" data-name="Path 469" d="M79.519,35.922v-1.1H77.471V32.414q-.681.222-1.3.421V34.82H72.88V33.565q0-1.723,1.364-1.722a1.733,1.733,0,0,1,.865.214V30.883a2.817,2.817,0,0,0-2.7.516,2.711,2.711,0,0,0-.833,2.1v1.316H70.2v1.1h1.381v7.022h1.3V35.922H76.17V40.73q0,2.4,2.127,2.4a2.479,2.479,0,0,0,1.221-.261V41.754a1.382,1.382,0,0,1-.841.262,1.123,1.123,0,0,1-.928-.346,1.876,1.876,0,0,1-.279-1.162V35.922Z" transform="translate(9.619 -26.508)"/>
    <path id="Path_470" data-name="Path 470" d="M84.388,36.564a12.249,12.249,0,0,1-1.449-.908,2.2,2.2,0,0,1-.611-.682,2,2,0,0,1-.18-.915,1.535,1.535,0,0,1,.605-1.265,2.45,2.45,0,0,1,1.562-.478,3.671,3.671,0,0,1,2.338.707V31.512a4.747,4.747,0,0,0-2.266-.41,3.955,3.955,0,0,0-2.633.856,2.95,2.95,0,0,0-.449,3.978A6.793,6.793,0,0,0,83.3,37.462a8.85,8.85,0,0,1,1.943,1.361,1.782,1.782,0,0,1,.473,1.241q0,1.727-2.216,1.726a4.306,4.306,0,0,1-1.49-.3,3.954,3.954,0,0,1-1.289-.74v1.6a3.927,3.927,0,0,0,1.144.445,5.769,5.769,0,0,0,1.449.213,4.335,4.335,0,0,0,2.8-.827A2.767,2.767,0,0,0,87.136,39.9a2.685,2.685,0,0,0-.611-1.735A7.423,7.423,0,0,0,84.388,36.564Z" transform="translate(13.537 -26.373)" fill="#0079c7"/>
    <path id="Path_471" data-name="Path 471" d="M88.506,31.869l-1.317.425V34.3H85.777v1.116h1.412v4.867q0,2.425,2.153,2.425a2.519,2.519,0,0,0,1.236-.265V41.321a1.4,1.4,0,0,1-.851.265,1.14,1.14,0,0,1-.94-.349,1.91,1.91,0,0,1-.281-1.177V35.418h2.072V34.3H88.506Z" transform="translate(15.42 -26.087)" fill="#0079c7"/>
    <path id="Path_472" data-name="Path 472" d="M95.858,38.38a2.74,2.74,0,0,1-.611,1.851,2,2,0,0,1-1.59.711q-1.99,0-1.991-2.595V33.642H90.348v4.915q0,3.51,2.948,3.509a2.7,2.7,0,0,0,2.53-1.5h.032v1.3h1.317V33.642H95.858Z" transform="translate(17.121 -25.427)" fill="#0079c7"/>
    <path id="Path_473" data-name="Path 473" d="M102.814,35.846h-.033a2.648,2.648,0,0,0-2.465-1.332,3.383,3.383,0,0,0-2.743,1.236,4.978,4.978,0,0,0-1.024,3.277,4.553,4.553,0,0,0,.924,2.992,3.3,3.3,0,0,0,5.308-.478h.033v1.4h1.316V30.763h-1.316Zm0,3.373a2.908,2.908,0,0,1-.7,2.008,2.278,2.278,0,0,1-1.783.788,2.154,2.154,0,0,1-1.774-.823,3.482,3.482,0,0,1-.659-2.237,3.816,3.816,0,0,1,.7-2.437,2.287,2.287,0,0,1,1.888-.88,2.253,2.253,0,0,1,1.649.675,2.29,2.29,0,0,1,.679,1.695Z" transform="translate(19.43 -26.499)" fill="#0079c7"/>
    <path id="Path_474" data-name="Path 474" d="M106.9,33.5a3.509,3.509,0,0,0-1.928.554,3.772,3.772,0,0,0-1.361,1.562,5,5,0,0,0-.494,2.229,4.634,4.634,0,0,0,.988,3.144,3.447,3.447,0,0,0,2.747,1.136,4.7,4.7,0,0,0,2.858-.795V40.1a4.031,4.031,0,0,1-2.546.9,2.575,2.575,0,0,1-1.949-.734,3.072,3.072,0,0,1-.734-2.126h5.806v-.69a4.328,4.328,0,0,0-.895-2.911A3.112,3.112,0,0,0,106.9,33.5Zm-2.4,3.525a3.075,3.075,0,0,1,.819-1.743,2.12,2.12,0,0,1,1.566-.659,1.861,1.861,0,0,1,1.505.631,2.709,2.709,0,0,1,.55,1.77Z" transform="translate(21.875 -25.481)" fill="#0079c7"/>
    <path id="Path_475" data-name="Path 475" d="M113.536,33.5a2.956,2.956,0,0,0-2.7,1.566h-.032V33.7h-1.317V41.92h1.317V37.23a2.724,2.724,0,0,1,.653-1.876,2.1,2.1,0,0,1,1.627-.734q1.91,0,1.91,2.61v4.69h1.317V36.885a3.913,3.913,0,0,0-.711-2.507A2.5,2.5,0,0,0,113.536,33.5Z" transform="translate(24.246 -25.481)" fill="#0079c7"/>
    <path id="Path_476" data-name="Path 476" d="M117.839,31.869l-1.317.425V34.3h-1.413v1.116h1.413v4.867q0,2.425,2.152,2.425a2.521,2.521,0,0,0,1.238-.265V41.321a1.4,1.4,0,0,1-.852.265,1.14,1.14,0,0,1-.939-.349,1.9,1.9,0,0,1-.281-1.177V35.418h2.072V34.3h-2.072Z" transform="translate(26.338 -26.087)" fill="#0079c7"/>
    <path id="Path_477" data-name="Path 477" d="M128.134,32.146a4.164,4.164,0,0,0-2.863-.9h-3.164V42.759h1.35V38.4h1.516A4.384,4.384,0,0,0,128,37.374a3.431,3.431,0,0,0,1.151-2.7A3.215,3.215,0,0,0,128.134,32.146ZM127,36.555a3.193,3.193,0,0,1-2.128.631h-1.412V32.464h1.581q2.7,0,2.7,2.288A2.238,2.238,0,0,1,127,36.555Z" transform="translate(28.943 -26.32)" fill="#0079c7"/>
    <path id="Path_478" data-name="Path 478" d="M130.783,33.5a5.674,5.674,0,0,0-1.558.252,4.011,4.011,0,0,0-1.238.527v1.349a4.067,4.067,0,0,1,2.683-1q1.7,0,1.695,2.087l-2.466.344q-2.713.385-2.714,2.683a2.229,2.229,0,0,0,.715,1.739,2.98,2.98,0,0,0,4.432-.84h.033V41.92h1.316V36.571Q133.681,33.5,130.783,33.5Zm1.582,5.083a2.443,2.443,0,0,1-.638,1.726,2.111,2.111,0,0,1-1.619.692,1.7,1.7,0,0,1-1.132-.373,1.237,1.237,0,0,1-.442-.992,1.361,1.361,0,0,1,.41-1.1,2.936,2.936,0,0,1,1.43-.486l1.991-.281Z" transform="translate(30.834 -25.481)" fill="#0079c7"/>
    <path id="Path_479" data-name="Path 479" d="M135.477,34.031a2.912,2.912,0,0,0-.844,1.345H134.6V33.681h-1.317v8.224H134.6V37.713a3.8,3.8,0,0,1,.546-2.139,1.764,1.764,0,0,1,2.425-.559V33.65a2.13,2.13,0,0,0-.786-.113A1.941,1.941,0,0,0,135.477,34.031Z" transform="translate(33.104 -25.466)" fill="#0079c7"/>
    <path id="Path_480" data-name="Path 480" d="M139.37,31.869l-1.317.425V34.3h-1.413v1.116h1.413v4.867q0,2.425,2.152,2.425a2.521,2.521,0,0,0,1.238-.265V41.321a1.4,1.4,0,0,1-.851.265,1.14,1.14,0,0,1-.94-.349,1.9,1.9,0,0,1-.281-1.177V35.418h2.072V34.3H139.37Z" transform="translate(34.354 -26.087)" fill="#0079c7"/>
    <path id="Path_481" data-name="Path 481" d="M145.209,33.5a2.956,2.956,0,0,0-2.7,1.566h-.032V33.7h-1.317V41.92h1.317V37.23a2.718,2.718,0,0,1,.655-1.876,2.094,2.094,0,0,1,1.626-.734q1.912,0,1.912,2.61v4.69h1.317V36.885a3.9,3.9,0,0,0-.712-2.507A2.5,2.5,0,0,0,145.209,33.5Z" transform="translate(36.037 -25.481)" fill="#0079c7"/>
    <path id="Path_482" data-name="Path 482" d="M150.826,33.5a3.5,3.5,0,0,0-1.927.554,3.775,3.775,0,0,0-1.363,1.562,5.014,5.014,0,0,0-.493,2.229,4.634,4.634,0,0,0,.987,3.144,3.447,3.447,0,0,0,2.747,1.136,4.7,4.7,0,0,0,2.858-.795V40.1a4.031,4.031,0,0,1-2.546.9,2.569,2.569,0,0,1-1.947-.734,3.073,3.073,0,0,1-.736-2.126h5.806v-.69a4.321,4.321,0,0,0-.895-2.911A3.112,3.112,0,0,0,150.826,33.5Zm-2.4,3.525a3.075,3.075,0,0,1,.819-1.743,2.123,2.123,0,0,1,1.566-.659,1.861,1.861,0,0,1,1.505.631,2.709,2.709,0,0,1,.55,1.77Z" transform="translate(38.227 -25.481)" fill="#0079c7"/>
    <path id="Path_483" data-name="Path 483" d="M155.608,34.031a2.912,2.912,0,0,0-.844,1.345h-.032V33.681h-1.317v8.224h1.317V37.713a3.8,3.8,0,0,1,.546-2.139,1.764,1.764,0,0,1,2.425-.559V33.65a2.135,2.135,0,0,0-.786-.113A1.941,1.941,0,0,0,155.608,34.031Z" transform="translate(40.598 -25.466)" fill="#0079c7"/>
    <path id="Path_484" data-name="Path 484" d="M161.314,38.345a4.546,4.546,0,0,0-1.651-1.046,4.572,4.572,0,0,1-1.264-.7,1.113,1.113,0,0,1-.306-.841,1.018,1.018,0,0,1,.4-.829,1.622,1.622,0,0,1,1.05-.322,3.092,3.092,0,0,1,1.869.587V33.869a3.955,3.955,0,0,0-1.763-.387,3.144,3.144,0,0,0-2.086.686,2.3,2.3,0,0,0-.371,3.127,4.143,4.143,0,0,0,1.547,1,5.814,5.814,0,0,1,1.393.793,1.01,1.01,0,0,1,.306.76q0,1.153-1.571,1.151a3.326,3.326,0,0,1-2.141-.789V41.63a4.07,4.07,0,0,0,2.045.5,3.387,3.387,0,0,0,2.194-.668,2.133,2.133,0,0,0,.825-1.74A2.025,2.025,0,0,0,161.314,38.345Z" transform="translate(41.83 -25.487)" fill="#0079c7"/>
    <text id="Club" transform="translate(207 16)" fill="#0079c7" font-size="15" font-family="SegoeUI, Segoe UI"><tspan x="0" y="0">Club</tspan></text>
    <text id="Kalinga_Institute_of_Industrial_Technology" data-name="Kalinga Institute of Industrial Technology" transform="translate(28 28)" fill="#262626" font-size="8" font-family="SegoeUI, Segoe UI"><tspan x="0" y="0">Kalinga Institute of Industrial Technology</tspan></text>
  </g>
</svg>
