<?xml version="1.0" encoding="UTF-8" standalone="no"?>
<svg
   xmlns:dc="http://purl.org/dc/elements/1.1/"
   xmlns:cc="http://creativecommons.org/ns#"
   xmlns:rdf="http://www.w3.org/1999/02/22-rdf-syntax-ns#"
   xmlns:svg="http://www.w3.org/2000/svg"
   xmlns="http://www.w3.org/2000/svg"
   xmlns:sodipodi="http://sodipodi.sourceforge.net/DTD/sodipodi-0.dtd"
   xmlns:inkscape="http://www.inkscape.org/namespaces/inkscape"
   width="240"
   height="34"
   viewBox="0 0 240 34"
   version="1.1"
   id="svg936"
   sodipodi:docname="msp_full_logo.svg"
   inkscape:version="0.92.3 (2405546, 2018-03-11)">
  <metadata
     id="metadata940">
    <rdf:RDF>
      <cc:Work
         rdf:about="">
        <dc:format>image/svg+xml</dc:format>
        <dc:type
           rdf:resource="http://purl.org/dc/dcmitype/StillImage" />
      </cc:Work>
    </rdf:RDF>
  </metadata>
  <sodipodi:namedview
     pagecolor="#ffffff"
     bordercolor="#666666"
     borderopacity="1"
     objecttolerance="10"
     gridtolerance="10"
     guidetolerance="10"
     inkscape:pageopacity="0"
     inkscape:pageshadow="2"
     inkscape:window-width="1920"
     inkscape:window-height="1016"
     id="namedview938"
     showgrid="false"
     inkscape:zoom="3.6563313"
     inkscape:cx="196.03907"
     inkscape:cy="-13.521136"
     inkscape:window-x="0"
     inkscape:window-y="30"
     inkscape:window-maximized="1"
     inkscape:current-layer="MSP_Logo_Full" />
  <defs
     id="defs899">
    <clipPath
       id="clip-MSP_Logo_Full">
      <rect
         width="240"
         height="34"
         id="rect896" />
    </clipPath>
  </defs>
  <g
     id="MSP_Logo_Full"
     data-name="MSP Logo Full"
     clip-path="url(#clip-MSP_Logo_Full)">
    <g
       id="g1057">
      <rect
         height="7.0679998"
         width="7.0679998"
         data-name="Rectangle 13"
         id="Rectangle_13"
         x="9"
         y="3"
         style="fill:#ea3818" />
      <rect
         height="7.0679998"
         width="7.0679998"
         data-name="Rectangle 14"
         id="Rectangle_14"
         x="16.805"
         y="3"
         style="fill:#7aae2d" />
      <rect
         height="7.0679998"
         width="7.0679998"
         data-name="Rectangle 15"
         id="Rectangle_15"
         x="9"
         y="10.807"
         style="fill:#0a90d3" />
      <rect
         height="7.0679998"
         width="7.0679998"
         data-name="Rectangle 16"
         id="Rectangle_16"
         x="16.805"
         y="10.807"
         style="fill:#ffa700" />
      <g
         id="g1021">
        <path
           inkscape:connector-curvature="0"
           id="Path_463"
           data-name="Path 463"
           d="m 42.579,4.558 a 0.835,0.835 0 0 0 -0.6,0.242 0.858,0.858 0 0 0 0,1.21 0.874,0.874 0 0 0 1.208,-0.007 0.818,0.818 0 0 0 0.248,-0.6 0.8,0.8 0 0 0 -0.248,-0.6 0.848,0.848 0 0 0 -0.608,-0.245 z"
           style="fill:#ffffff" />
        <g
           id="g862"
           style="fill:#ffffff">
          <path
             inkscape:connector-curvature="0"
             transform="translate(-4.41,-26.284)"
             d="m 38.884,39.243 q -0.208,0.463 -0.548,1.4 H 38.28 A 9.534,9.534 0 0 0 37.764,39.279 L 34.273,31.345 H 32.511 V 42.719 H 33.8 v -7.625 q 0,-1.538 -0.063,-2.22 h 0.032 a 6.422,6.422 0 0 0 0.34,1.166 l 3.889,8.68 h 0.652 l 3.879,-8.744 a 7.641,7.641 0 0 0 0.342,-1.1 H 42.9 q -0.111,1.3 -0.111,2.205 v 7.641 h 1.331 v -11.38 h -1.674 z"
             data-name="Path 462"
             id="Path_462"
             style="fill:#ffffff" />
          <rect
             y="0"
             x="0"
             transform="translate(41.914,8.311)"
             height="8.1260004"
             width="1.302"
             data-name="Rectangle 17"
             id="Rectangle_17"
             style="fill:#ffffff" />
          <path
             inkscape:connector-curvature="0"
             transform="translate(0.076,-25.455)"
             d="m 45.708,34.8 a 4.545,4.545 0 0 0 -1.147,3.229 4.1,4.1 0 0 0 1.048,2.905 3.652,3.652 0 0 0 2.816,1.158 4.207,4.207 0 0 0 2.23,-0.571 V 40.28 a 3.277,3.277 0 0 1 -2,0.7 2.584,2.584 0 0 1 -2.012,-0.825 3.216,3.216 0 0 1 -0.749,-2.245 3.362,3.362 0 0 1 0.816,-2.366 2.61,2.61 0 0 1 2.023,-0.865 3.307,3.307 0 0 1 1.938,0.635 V 33.98 A 4.127,4.127 0 0 0 48.79,33.568 4.009,4.009 0 0 0 45.708,34.8 Z"
             data-name="Path 464"
             id="Path_464"
             style="fill:#ffffff" />
          <path
             inkscape:connector-curvature="0"
             transform="translate(2.068,-25.44)"
             d="m 52.126,34.053 a 2.829,2.829 0 0 0 -0.881,1.372 h -0.032 v -1.674 h -1.3 v 8.125 h 1.3 v -4.142 a 3.571,3.571 0 0 1 0.611,-2.213 1.74,1.74 0 0 1 2.325,-0.453 v -1.349 a 2.085,2.085 0 0 0 -0.778,-0.111 1.941,1.941 0 0 0 -1.245,0.445 z"
             data-name="Path 465"
             id="Path_465"
             style="fill:#ffffff" />
          <path
             inkscape:connector-curvature="0"
             transform="translate(3.316,-25.455)"
             d="m 57.408,33.567 a 4.037,4.037 0 0 0 -2.952,1.08 4.36,4.36 0 0 0 -1.191,3.277 4.232,4.232 0 0 0 1.047,2.992 3.74,3.74 0 0 0 2.9,1.175 3.847,3.847 0 0 0 2.953,-1.175 4.388,4.388 0 0 0 1.097,-3.116 4.448,4.448 0 0 0 -1.02,-3.1 3.626,3.626 0 0 0 -2.834,-1.133 z m 1.864,6.579 a 2.372,2.372 0 0 1 -1.96,0.833 2.518,2.518 0 0 1 -1.975,-0.821 3.288,3.288 0 0 1 -0.74,-2.281 3.446,3.446 0 0 1 0.771,-2.4 2.509,2.509 0 0 1 1.943,-0.795 2.4,2.4 0 0 1 1.913,0.785 3.555,3.555 0 0 1 0.705,2.382 3.557,3.557 0 0 1 -0.658,2.297 z"
             data-name="Path 466"
             id="Path_466"
             style="fill:#ffffff" />
          <path
             inkscape:connector-curvature="0"
             transform="translate(5.738,-25.455)"
             d="M 62.668,37.33 A 4.626,4.626 0 0 1 61.447,36.655 1.086,1.086 0 0 1 61.122,35.815 1.006,1.006 0 0 1 61.51,35 a 1.6,1.6 0 0 1 1.039,-0.317 3.066,3.066 0 0 1 1.842,0.579 v -1.314 a 3.866,3.866 0 0 0 -1.737,-0.381 3.106,3.106 0 0 0 -2.064,0.671 2.109,2.109 0 0 0 -0.8,1.686 2.083,2.083 0 0 0 0.516,1.467 4.247,4.247 0 0 0 1.452,0.922 5.458,5.458 0 0 1 1.334,0.745 1.015,1.015 0 0 1 0.34,0.785 q 0,1.136 -1.548,1.135 A 3.253,3.253 0 0 1 59.775,40.2 v 1.4 a 3.96,3.96 0 0 0 2.014,0.493 3.279,3.279 0 0 0 2.23,-0.714 2.118,2.118 0 0 0 0.745,-1.659 2,2 0 0 0 -0.594,-1.492 4.76,4.76 0 0 0 -1.502,-0.898 z"
             data-name="Path 467"
             id="Path_467"
             style="fill:#ffffff" />
          <path
             inkscape:connector-curvature="0"
             transform="translate(7.324,-25.455)"
             d="m 68.17,33.567 a 4.038,4.038 0 0 0 -2.95,1.08 4.365,4.365 0 0 0 -1.191,3.277 4.238,4.238 0 0 0 1.047,2.992 3.741,3.741 0 0 0 2.905,1.175 3.841,3.841 0 0 0 2.95,-1.175 4.383,4.383 0 0 0 1.1,-3.119 4.448,4.448 0 0 0 -1.02,-3.1 3.632,3.632 0 0 0 -2.841,-1.13 z m 1.866,6.579 a 2.377,2.377 0 0 1 -1.961,0.833 2.522,2.522 0 0 1 -1.975,-0.821 3.288,3.288 0 0 1 -0.74,-2.281 3.446,3.446 0 0 1 0.771,-2.4 2.511,2.511 0 0 1 1.943,-0.795 2.4,2.4 0 0 1 1.913,0.785 3.547,3.547 0 0 1 0.705,2.382 3.565,3.565 0 0 1 -0.655,2.297 z"
             data-name="Path 468"
             id="Path_468"
             style="fill:#ffffff" />
          <path
             inkscape:connector-curvature="0"
             transform="translate(9.619,-26.508)"
             d="m 79.519,35.922 v -1.1 h -2.048 v -2.408 q -0.681,0.222 -1.3,0.421 V 34.82 H 72.88 v -1.255 q 0,-1.723 1.364,-1.722 a 1.733,1.733 0 0 1 0.865,0.214 v -1.174 a 2.817,2.817 0 0 0 -2.7,0.516 2.711,2.711 0 0 0 -0.833,2.1 v 1.316 H 70.2 v 1.1 h 1.381 v 7.022 h 1.3 v -7.015 h 3.289 v 4.808 q 0,2.4 2.127,2.4 a 2.479,2.479 0 0 0 1.221,-0.261 V 41.754 A 1.382,1.382 0 0 1 78.677,42.016 1.123,1.123 0 0 1 77.749,41.67 1.876,1.876 0 0 1 77.47,40.508 v -4.586 z"
             data-name="Path 469"
             id="Path_469"
             style="fill:#ffffff" />
        </g>
        <path
           style="fill:#0079c7"
           inkscape:connector-curvature="0"
           id="Path_470"
           data-name="Path 470"
           d="M 97.925,10.191 A 12.249,12.249 0 0 1 96.476,9.283 2.2,2.2 0 0 1 95.865,8.601 2,2 0 0 1 95.685,7.686 1.535,1.535 0 0 1 96.29,6.421 2.45,2.45 0 0 1 97.852,5.943 3.671,3.671 0 0 1 100.19,6.65 V 5.139 a 4.747,4.747 0 0 0 -2.266,-0.41 3.955,3.955 0 0 0 -2.633,0.856 2.95,2.95 0 0 0 -0.449,3.978 6.793,6.793 0 0 0 1.995,1.526 8.85,8.85 0 0 1 1.943,1.361 1.782,1.782 0 0 1 0.473,1.241 q 0,1.727 -2.216,1.726 a 4.306,4.306 0 0 1 -1.49,-0.3 3.954,3.954 0 0 1 -1.289,-0.74 v 1.6 a 3.927,3.927 0 0 0 1.144,0.445 5.769,5.769 0 0 0 1.449,0.213 4.335,4.335 0 0 0 2.8,-0.827 2.767,2.767 0 0 0 1.022,-2.281 2.685,2.685 0 0 0 -0.611,-1.735 7.423,7.423 0 0 0 -2.137,-1.601 z" />
        <path
           style="fill:#0079c7"
           inkscape:connector-curvature="0"
           id="Path_471"
           data-name="Path 471"
           d="m 103.926,5.782 -1.317,0.425 v 2.006 h -1.412 v 1.116 h 1.412 v 4.867 q 0,2.425 2.153,2.425 a 2.519,2.519 0 0 0 1.236,-0.265 v -1.122 a 1.4,1.4 0 0 1 -0.851,0.265 1.14,1.14 0 0 1 -0.94,-0.349 1.91,1.91 0 0 1 -0.281,-1.177 V 9.331 h 2.072 V 8.213 h -2.072 z" />
        <path
           style="fill:#0079c7"
           inkscape:connector-curvature="0"
           id="Path_472"
           data-name="Path 472"
           d="m 112.979,12.953 a 2.74,2.74 0 0 1 -0.611,1.851 2,2 0 0 1 -1.59,0.711 q -1.99,0 -1.991,-2.595 V 8.215 h -1.318 v 4.915 q 0,3.51 2.948,3.509 a 2.7,2.7 0 0 0 2.53,-1.5 h 0.032 v 1.3 h 1.317 V 8.215 h -1.317 z" />
        <path
           style="fill:#0079c7"
           inkscape:connector-curvature="0"
           id="Path_473"
           data-name="Path 473"
           d="m 122.244,9.347 h -0.033 a 2.648,2.648 0 0 0 -2.465,-1.332 3.383,3.383 0 0 0 -2.743,1.236 4.978,4.978 0 0 0 -1.024,3.277 4.553,4.553 0 0 0 0.924,2.992 3.3,3.3 0 0 0 5.308,-0.478 h 0.033 v 1.4 h 1.316 V 4.264 h -1.316 z m 0,3.373 a 2.908,2.908 0 0 1 -0.7,2.008 2.278,2.278 0 0 1 -1.783,0.788 2.154,2.154 0 0 1 -1.774,-0.823 3.482,3.482 0 0 1 -0.659,-2.237 3.816,3.816 0 0 1 0.7,-2.437 2.287,2.287 0 0 1 1.888,-0.88 2.253,2.253 0 0 1 1.649,0.675 2.29,2.29 0 0 1 0.679,1.695 z" />
        <path
           style="fill:#0079c7"
           inkscape:connector-curvature="0"
           id="Path_474"
           data-name="Path 474"
           d="m 128.775,8.019 a 3.509,3.509 0 0 0 -1.928,0.554 3.772,3.772 0 0 0 -1.361,1.562 5,5 0 0 0 -0.494,2.229 4.634,4.634 0 0 0 0.988,3.144 3.447,3.447 0 0 0 2.747,1.136 4.7,4.7 0 0 0 2.858,-0.795 v -1.23 a 4.031,4.031 0 0 1 -2.546,0.9 2.575,2.575 0 0 1 -1.949,-0.734 3.072,3.072 0 0 1 -0.734,-2.126 h 5.806 v -0.69 a 4.328,4.328 0 0 0 -0.895,-2.911 3.112,3.112 0 0 0 -2.492,-1.039 z m -2.4,3.525 a 3.075,3.075 0 0 1 0.819,-1.743 2.12,2.12 0 0 1 1.566,-0.659 1.861,1.861 0 0 1 1.505,0.631 2.709,2.709 0 0 1 0.55,1.77 z" />
        <path
           style="fill:#0079c7"
           inkscape:connector-curvature="0"
           id="Path_475"
           data-name="Path 475"
           d="m 137.782,8.019 a 2.956,2.956 0 0 0 -2.7,1.566 H 135.05 V 8.219 h -1.317 v 8.22 h 1.317 v -4.69 a 2.724,2.724 0 0 1 0.653,-1.876 2.1,2.1 0 0 1 1.627,-0.734 q 1.91,0 1.91,2.61 v 4.69 h 1.317 v -5.035 a 3.913,3.913 0 0 0 -0.711,-2.507 2.5,2.5 0 0 0 -2.064,-0.878 z" />
        <path
           style="fill:#0079c7"
           inkscape:connector-curvature="0"
           id="Path_476"
           data-name="Path 476"
           d="m 144.177,5.782 -1.317,0.425 v 2.006 h -1.413 v 1.116 h 1.413 v 4.867 q 0,2.425 2.152,2.425 a 2.521,2.521 0 0 0 1.238,-0.265 v -1.122 a 1.4,1.4 0 0 1 -0.852,0.265 1.14,1.14 0 0 1 -0.939,-0.349 1.9,1.9 0 0 1 -0.281,-1.177 V 9.331 h 2.072 V 8.213 h -2.072 z" />
        <path
           style="fill:#0079c7"
           inkscape:connector-curvature="0"
           id="Path_477"
           data-name="Path 477"
           d="m 157.077,5.826 a 4.164,4.164 0 0 0 -2.863,-0.9 h -3.164 v 11.513 h 1.35 V 12.08 h 1.516 a 4.384,4.384 0 0 0 3.027,-1.026 3.431,3.431 0 0 0 1.151,-2.7 3.215,3.215 0 0 0 -1.017,-2.528 z m -1.134,4.409 a 3.193,3.193 0 0 1 -2.128,0.631 h -1.412 V 6.144 h 1.581 q 2.7,0 2.7,2.288 a 2.238,2.238 0 0 1 -0.741,1.803 z" />
        <path
           style="fill:#0079c7"
           inkscape:connector-curvature="0"
           id="Path_478"
           data-name="Path 478"
           d="m 161.617,8.019 a 5.674,5.674 0 0 0 -1.558,0.252 4.011,4.011 0 0 0 -1.238,0.527 v 1.349 a 4.067,4.067 0 0 1 2.683,-1 q 1.7,0 1.695,2.087 l -2.466,0.344 q -2.713,0.385 -2.714,2.683 a 2.229,2.229 0 0 0 0.715,1.739 2.98,2.98 0 0 0 4.432,-0.84 h 0.033 v 1.279 h 1.316 V 11.09 q 0,-3.071 -2.898,-3.071 z m 1.582,5.083 a 2.443,2.443 0 0 1 -0.638,1.726 2.111,2.111 0 0 1 -1.619,0.692 1.7,1.7 0 0 1 -1.132,-0.373 1.237,1.237 0 0 1 -0.442,-0.992 1.361,1.361 0 0 1 0.41,-1.1 2.936,2.936 0 0 1 1.43,-0.486 l 1.991,-0.281 z" />
        <path
           style="fill:#0079c7"
           inkscape:connector-curvature="0"
           id="Path_479"
           data-name="Path 479"
           d="m 168.581,8.565 a 2.912,2.912 0 0 0 -0.844,1.345 h -0.033 V 8.215 h -1.317 v 8.224 h 1.317 v -4.192 a 3.8,3.8 0 0 1 0.546,-2.139 1.764,1.764 0 0 1 2.425,-0.559 V 8.184 a 2.13,2.13 0 0 0 -0.786,-0.113 1.941,1.941 0 0 0 -1.308,0.494 z" />
        <path
           style="fill:#0079c7"
           inkscape:connector-curvature="0"
           id="Path_480"
           data-name="Path 480"
           d="m 173.724,5.782 -1.317,0.425 v 2.006 h -1.413 v 1.116 h 1.413 v 4.867 q 0,2.425 2.152,2.425 a 2.521,2.521 0 0 0 1.238,-0.265 v -1.122 a 1.4,1.4 0 0 1 -0.851,0.265 1.14,1.14 0 0 1 -0.94,-0.349 1.9,1.9 0 0 1 -0.281,-1.177 V 9.331 h 2.072 V 8.213 h -2.073 z" />
        <path
           style="fill:#0079c7"
           inkscape:connector-curvature="0"
           id="Path_481"
           data-name="Path 481"
           d="m 181.246,8.019 a 2.956,2.956 0 0 0 -2.7,1.566 h -0.032 V 8.219 h -1.317 v 8.22 h 1.317 v -4.69 a 2.718,2.718 0 0 1 0.655,-1.876 2.094,2.094 0 0 1 1.626,-0.734 q 1.912,0 1.912,2.61 v 4.69 h 1.317 v -5.035 a 3.9,3.9 0 0 0 -0.712,-2.507 2.5,2.5 0 0 0 -2.066,-0.878 z" />
        <path
           style="fill:#0079c7"
           inkscape:connector-curvature="0"
           id="Path_482"
           data-name="Path 482"
           d="m 189.053,8.019 a 3.5,3.5 0 0 0 -1.927,0.554 3.775,3.775 0 0 0 -1.363,1.562 5.014,5.014 0 0 0 -0.493,2.229 4.634,4.634 0 0 0 0.987,3.144 3.447,3.447 0 0 0 2.747,1.136 4.7,4.7 0 0 0 2.858,-0.795 v -1.23 a 4.031,4.031 0 0 1 -2.546,0.9 2.569,2.569 0 0 1 -1.947,-0.734 3.073,3.073 0 0 1 -0.736,-2.126 h 5.806 v -0.69 a 4.321,4.321 0 0 0 -0.895,-2.911 3.112,3.112 0 0 0 -2.491,-1.039 z m -2.4,3.525 a 3.075,3.075 0 0 1 0.819,-1.743 2.123,2.123 0 0 1 1.566,-0.659 1.861,1.861 0 0 1 1.505,0.631 2.709,2.709 0 0 1 0.55,1.77 z" />
        <path
           style="fill:#0079c7"
           inkscape:connector-curvature="0"
           id="Path_483"
           data-name="Path 483"
           d="M 196.206,8.565 A 2.912,2.912 0 0 0 195.362,9.91 H 195.33 V 8.215 h -1.317 v 8.224 h 1.317 v -4.192 a 3.8,3.8 0 0 1 0.546,-2.139 1.764,1.764 0 0 1 2.425,-0.559 V 8.184 a 2.135,2.135 0 0 0 -0.786,-0.113 1.941,1.941 0 0 0 -1.309,0.494 z" />
        <path
           style="fill:#0079c7"
           inkscape:connector-curvature="0"
           id="Path_484"
           data-name="Path 484"
           d="m 203.144,12.858 a 4.546,4.546 0 0 0 -1.651,-1.046 4.572,4.572 0 0 1 -1.264,-0.7 1.113,1.113 0 0 1 -0.306,-0.841 1.018,1.018 0 0 1 0.4,-0.829 1.622,1.622 0 0 1 1.05,-0.322 3.092,3.092 0 0 1 1.869,0.587 V 8.382 a 3.955,3.955 0 0 0 -1.763,-0.387 3.144,3.144 0 0 0 -2.086,0.686 2.3,2.3 0 0 0 -0.371,3.127 4.143,4.143 0 0 0 1.547,1 5.814,5.814 0 0 1 1.393,0.793 1.01,1.01 0 0 1 0.306,0.76 q 0,1.153 -1.571,1.151 a 3.326,3.326 0 0 1 -2.141,-0.789 v 1.42 a 4.07,4.07 0 0 0 2.045,0.5 3.387,3.387 0 0 0 2.194,-0.668 2.133,2.133 0 0 0 0.825,-1.74 2.025,2.025 0 0 0 -0.476,-1.377 z" />
        <text
           style="font-size:15px;font-family:SegoeUI, 'Segoe UI';fill:#0079c7"
           id="Club"
           font-size="15"
           x="207"
           y="16">
          <tspan
             x="207"
             y="16"
             id="tspan929">Club</tspan>
        </text>
        <text
           id="Kalinga_Institute_of_Industrial_Technology"
           data-name="Kalinga Institute of Industrial Technology"
           font-size="8"
           style="font-size:8px;font-family:SegoeUI, 'Segoe UI';fill:#ffffff"
           x="28"
           y="28">
          <tspan
             x="28"
             y="28"
             id="tspan932"
             style="fill:#ffffff">Kalinga Institute of Industrial Technology</tspan>
        </text>
      </g>
    </g>
  </g>
</svg>
